<?xml version="1.0"?>
<svg xmlns="http://www.w3.org/2000/svg" xmlns:xlink="http://www.w3.org/1999/xlink" version="1.1" id="Capa_1" x="0px" y="0px" viewBox="0 0 27.494 27.494" style="enable-background:new 0 0 27.494 27.494;" xml:space="preserve" width="512px" height="512px" class=""><g><g>
	<g id="c137_pause">
		<path d="M13.747,0C6.155,0,0,6.154,0,13.747c0,7.594,6.155,13.747,13.747,13.747    c7.593,0,13.747-6.153,13.747-13.747C27.494,6.154,21.34,0,13.747,0z M11.937,20.483c0,0.177-0.144,0.322-0.318,0.322h-2.68    c-0.177,0-0.317-0.146-0.317-0.322V7.007c0-0.172,0.141-0.317,0.317-0.317h2.68c0.175,0,0.318,0.146,0.318,0.317V20.483z     M18.875,20.483c0,0.177-0.145,0.322-0.318,0.322h-2.681c-0.174,0-0.319-0.146-0.319-0.322V7.007c0-0.172,0.146-0.317,0.319-0.317    h2.681c0.174,0,0.318,0.146,0.318,0.317V20.483z" data-original="#030104" class="active-path" data-old_color="#030104" fill="#32BEA6"/>
	</g>
</g></g> </svg>
